# AST/ASF file generated using VICON BodyLanguage
# -----------------------------------------------
:version 1.10
:name VICON
:units
  mass 1.0
  length 0.45
  angle deg
:documentation
   .ast/.asf automatically generated from VICON data using
   VICON BodyBuilder and BodyLanguage model FoxedUp or BRILLIANT.MOD
:root
   order TX TY TZ RX RY RZ
   axis XYZ
   position 0 0 0  
   orientation 0 0 0 
:bonedata
  begin
     id 1 
     name lhipjoint
     direction 0.611804 -0.747784 0.257906 
     length 2.29243 
     axis 0 0 0  XYZ
  end
  begin
     id 2 
     name lfemur
     direction 0.34202 -0.939693 0  
     length 7.31159  
     axis 0 0 20  XYZ
    dof rx ry rz
    limits (-160.0 20.0)
           (-70.0 70.0)
           (-60.0 70.0)
  end
  begin
     id 3 
     name ltibia
     direction 0.34202 -0.939693 0   
     length 7.33391   
     axis 0 0 20   XYZ
    dof rx
    limits (-10.0 170.0)
  end
  begin
     id 4 
     name lfoot
     direction 0.122263 -0.335914 0.933924   
     length 1.76083   
     axis -90 7.62852e-016 20   XYZ
    dof rx rz
    limits (-45.0 90.0)
           (-70.0 20.0)
  end
  begin
     id 5 
     name ltoes
     direction 1.53533e-011 -4.2177e-011 1   
     length 0.879206   
     axis -90 7.62852e-016 20   XYZ
    dof rx
    limits (-90.0 20.0)
  end
  begin
     id 6 
     name rhipjoint
     direction -0.646469 -0.721248 0.248754   
     length 2.37677  
     axis 0 0 0  XYZ 
  end
  begin
     id 7 
     name rfemur
     direction -0.34202 -0.939693 0   
     length 7.18623   
     axis 0 0 -20   XYZ
    dof rx ry rz
    limits (-160.0 20.0)
           (-70.0 70.0)
           (-70.0 60.0)
  end
  begin
     id 8 
     name rtibia
     direction -0.34202 -0.939693 0   
     length 7.36567   
     axis 0 0 -20   XYZ
    dof rx
    limits (-10.0 170.0)
 end
 begin
     id 9 
     name rfoot
     direction -0.126681 -0.348054 0.928876   
     length 1.71902  
     axis -90 -7.62852e-016 -20   XYZ
    dof rx rz
    limits (-45.0 90.0)
           (-20.0 70.0)
  end
  begin
     id 10 
     name rtoes
     direction -1.53551e-011 -4.21898e-011 1   
     length 0.857792   
     axis -90 -7.62852e-016 -20   XYZ
    dof rx
    limits (-90.0 20.0)
  end
  begin
     id 11 
     name lowerback
     direction 0.0106509 0.999778 0.0181844   
     length 2.07668   
     axis 0 0 0   XYZ
    dof rx ry rz
    limits (-20.0 45.0)
           (-30.0 30.0)
           (-30.0 30.0)
  end
  begin
     id 12 
     name upperback
     direction -0.00456018 0.999989 -0.000590935   
     length 2.08011   
     axis 0 0 0   XYZ
    dof rx ry rz
    limits (-20.0 45.0)
           (-30.0 30.0)
           (-30.0 30.0)
  end
  begin
     id 13 
     name thorax
     direction -0.00910382 0.999916 -0.00923765   
     length 2.07397   
     axis 0 0 0   XYZ
    dof rx ry rz
    limits (-20.0 45.0)
           (-30.0 30.0)
           (-30.0 30.0)
  end
  begin
     id 14 
     name lowerneck
     direction 0.00171967 0.99778 0.0665733   
     length 1.67556   
     axis 0 0 0   XYZ
    dof rx ry rz
    limits (-20.0 45.0)
           (-30.0 30.0)
           (-30.0 30.0)
  end
  begin
     id 15 
     name upperneck
     direction -0.0143166 0.991302 -0.130828   
     length 1.68462   
     axis 0 0 0   XYZ
    dof rx ry rz
    limits (-20.0 45.0)
           (-30.0 30.0)
           (-30.0 30.0)
  end
  begin
     id 16
     name head
     direction -0.00606378 0.998665 -0.0512995  
     length 1.69269  
     axis 0 0 0   XYZ
    dof rx ry rz
    limits (-20.0 45.0)
           (-30.0 30.0)
           (-30.0 30.0)
  end
  begin
     id 17 
     name lclavicle
     direction 0.9638 0.179341 0.197297  
     length 4.12888  
     axis 0 0 0   XYZ
    dof ry rz
    limits (-20.0 10.0)
           (0.0 20.0)
  end
  begin
     id 18 
     name lhumerus
     direction 1 -4.48972e-011 -2.47351e-027   
     length 5.01834   
     axis -180 -30 -90   XYZ
    dof rx ry rz
    limits (-60.0 90.0)
           (-90.0 90.0)
           (-90.0 90.0)
  end
  begin
     id 19
     name lradius
     direction 1 -4.48965e-011 1.51591e-026   
     length 3.4869   
     axis -180 -30 -90   XYZ
    dof rx
    limits (-10.0 170.0)
  end
  begin
     id 20
     name lwrist
     direction 1 -4.48957e-011 2.70032e-026   
     length 1.74345   
     axis -1.81515e-014 90 90   XYZ
    dof ry
    limits (-180.0 0.0)
 end
  begin
     id 21 
     name lhand
     direction 1 -4.48951e-011 5.40064e-026   
     length 0.76799   
     axis -3.44607e-014 90 90   XYZ
    dof rx rz
    limits (-90.0 90.0)
           (-45.0 45.0)
  end
  begin
     id 22 
     name lfingers
     direction 1 -4.48971e-011 1.08013e-025   
     length 0.619174   
     axis -6.89214e-014 90 90   XYZ
    dof rx
    limits (0.0 90.0)
  end
  begin
     id 23
     name lthumb
     direction 0.707107 -6.34931e-011 0.707107   
     length 0.889013   
     axis -90 45 2.85299e-015   XYZ
    dof rx rz
    limits (-45.0 45.0)
           (-45.0 45.0)
  end
  begin
     id 24 
     name rclavicle
     direction -0.961409 0.252588 0.109054   
     length 4.04305  
     axis 0 0 0   XYZ 
    dof ry rz
    limits (-10.0 20.0)
           (-20.0 0.0)
  end
  begin
     id 25 
     name rhumerus
     direction -1 -4.4897e-011 1.33872e-017  
     length 4.70164   
     axis -180 30 90   XYZ
    dof rx ry rz
    limits (-90.0 60.0)
           (-90.0 90.0)
           (-90.0 90.0)
  end
  begin
     id 26 
     name rradius
     direction -1 -4.48954e-011 1.83844e-026   
     length 3.49911   
     axis -180 30 90   XYZ
    dof rx
    limits (-10.0 170.0)
  end
  begin
     id 27 
     name rwrist
     direction -1 -4.49008e-011 2.70032e-026   
     length 1.74955   
     axis -1.81515e-014 -90 -90   XYZ
    dof ry
    limits (-180.0 0.0)
  end
  begin
     id 28
     name rhand
     direction -1 -4.48916e-011 5.40064e-026   
     length 0.739335   
     axis -3.44607e-014 -90 -90   XYZ
    dof rx rz
    limits (-90.0 90.0)
           (-45.0 45.0)
  end
  begin
     id 29
     name rfingers
     direction -1 -4.48987e-011 1.08013e-025   
     length 0.596071   
     axis -6.89214e-014 -90 -90   XYZ
    dof rx
    limits (0.0 90.0)
  end
  begin
     id 30
     name rthumb
     direction -0.707107 -6.34935e-011 0.707107   
     length 0.855843   
     axis -90 -45 -2.85299e-015   XYZ
    dof rx rz
    limits (-45.0 45.0)
           (-45.0 45.0)
  end
:hierarchy
  begin
    root lhipjoint rhipjoint lowerback
    lhipjoint lfemur
    lfemur ltibia
    ltibia lfoot
    lfoot ltoes
    rhipjoint rfemur
    rfemur rtibia
    rtibia rfoot
    rfoot rtoes
    lowerback upperback
    upperback thorax
    thorax lowerneck lclavicle rclavicle
    lowerneck upperneck
    upperneck head
    lclavicle lhumerus
    lhumerus lradius
    lradius lwrist
    lwrist lhand lthumb
    lhand lfingers
    rclavicle rhumerus
    rhumerus rradius
    rradius rwrist
    rwrist rhand rthumb
    rhand rfingers
  end

#!OML:ASF I:\salsa\salsa 7_09\Patient 1\Session 1\dancermale.ASF
:FULLY-SPECIFIED
:DEGREES
1087
root -6.31788 16.957 5.99753 -729.757 100.998 -738.63
lowerback -3.70997 3.30171 1.77499
upperback -2.29092 4.45166 -3.95628
thorax 0.167728 2.23886 -4.89281
lowerneck -6.43988 -8.05328 -0.767348
upperneck 7.82314 -10.6792 -0.287042
head 3.70366 -5.31278 -0.518423
rclavicle -1.87976e-014 -2.14687e-014
rhumerus 29.4912 8.23683 6.05333
rradius 53.2127
rwrist 32.8108
rhand 165.342 197.614
rfingers 7.12502
rthumb 11.4946 -12.0511
lclavicle -1.87976e-014 -2.14687e-014
lhumerus -44.6131 -60.7796 114.925
lradius 96.9726
lwrist 36.343
lhand -10.7707 51.8788
lfingers 7.12502
lthumb 15.2414 441.297
rfemur -28.1675 -13.9481 16.9902
rtibia 74.6786
rfoot -2.33743 -8.35072
rtoes 17.8058
lfemur -22.1225 0.0638077 -28.9028
ltibia 35.1773
lfoot -23.8379 7.70326
ltoes -3.43836
1088
root -6.2526 16.978 5.96514 -729.67 100.861 -738.312
lowerback -3.4633 2.92012 1.68999
upperback -2.16051 3.93303 -3.63832
thorax 0.0859413 1.97502 -4.54937
lowerneck -6.36464 -7.63453 -0.258611
upperneck 7.5418 -10.0922 -1.14288
head 3.50867 -5.04758 -0.829515
rclavicle 1.19271e-014 2.22639e-014
rhumerus 28.2655 8.69718 6.5579
rradius 56.4915
rwrist 31.7561
rhand 166.181 197.472
rfingers 7.12502
rthumb 12.3033 -12.1456
lclavicle 1.19271e-014 2.22639e-014
lhumerus -44.6974 -60.0513 116.01
lradius 95.1624
lwrist 36.0621
lhand -10.7772 52.4599
lfingers 7.12502
lthumb 15.2351 441.879
rfemur -30.2283 -13.0387 16.8438
rtibia 75.742
rfoot -3.92007 -10.9312
rtoes 20.02
lfemur -20.8892 -0.512451 -28.9098
ltibia 33.8553
lfoot -23.4974 8.18171
ltoes -2.20884
1089
root -6.18397 17.0093 5.93607 -728.338 100.79 -736.947
lowerback -3.369 2.52689 1.89331
upperback -2.16181 3.39351 -3.36947
thorax -0.0221832 1.69839 -4.41365
lowerneck -6.2463 -7.20512 -0.316949
upperneck 7.51346 -9.51357 -1.10869
head 3.48454 -4.76096 -0.774418
rclavicle 5.20319e-014 1.03368e-014
rhumerus 26.855 9.15352 6.55557
rradius 59.8696
rwrist 31.0059
rhand 167.153 197.562
rfingers 7.12502
rthumb 13.2405 -11.9972
lclavicle 5.20319e-014 1.03368e-014
lhumerus -44.783 -59.361 117.032
lradius 93.415
lwrist 36.0396
lhand -10.7455 52.648
lfingers 7.12502
lthumb 15.2657 442.065
rfemur -32.2416 -11.9618 16.7755
rtibia 75.6712
rfoot -5.26132 -12.1543
rtoes 20.6155
lfemur -20.0055 -1.83823 -28.7129
ltibia 32.7465
lfoot -23.1366 8.95673
ltoes 0.00935129
1090
root -6.1111 17.05 5.91416 -726.292 100.739 -734.996
lowerback -3.36121 2.12904 2.19234
upperback -2.23124 2.847 -3.09914
thorax -0.147181 1.41718 -4.3268
lowerneck -6.09436 -6.78847 -0.231899
upperneck 7.47195 -8.9443 -1.32607
head 3.42846 -4.48546 -0.822277
rclavicle 6.60959e-015 -5.725e-014
rhumerus 25.359 9.68448 6.55081
rradius 63.4251
rwrist 29.6303
rhand 168.045 197.504
rfingers 7.12502
rthumb 14.1008 -11.9978
lclavicle 6.60959e-015 -5.725e-014
lhumerus -44.7979 -58.6126 117.959
lradius 91.7289
lwrist 36.2807
lhand -10.8223 52.7626
lfingers 7.12502
lthumb 15.1917 442.185
rfemur -34.1007 -10.6619 16.7177
rtibia 74.4979
rfoot -6.50615 -12.241
rtoes 19.5483
lfemur -19.3326 -3.40901 -28.3726
ltibia 31.7802
lfoot -22.7972 10.0617
ltoes 1.91702
1091
root -6.03487 17.099 5.89722 -724.586 100.71 -733.464
lowerback -3.39897 1.70248 2.29045
upperback -2.2821 2.26842 -2.78613
thorax -0.239936 1.12294 -4.07982
lowerneck -6.15273 -6.35397 -0.208263
upperneck 7.51368 -8.3389 -1.60357
head 3.44451 -4.19586 -0.890665
rclavicle 3.10725e-014 0
rhumerus 23.9552 10.0867 6.71335
rradius 67.0707
rwrist 27.5066
rhand 169.021 197.007
rfingers 7.12502
rthumb 15.0404 -12.4271
lclavicle 3.10725e-014 0
lhumerus -44.6694 -57.854 118.782
lradius 90.1889
lwrist 36.6558
lhand -11.1596 53.0432
lfingers 7.12502
lthumb 14.8667 442.49
rfemur -35.7223 -9.24422 16.4931
rtibia 72.3702
rfoot -7.83803 -11.8932
rtoes 16.8371
lfemur -18.6632 -4.8258 -28.1018
ltibia 30.7183
lfoot -22.4177 11.1911
ltoes 2.63296
1092
root -5.94772 17.1515 5.88285 -723.582 100.664 -732.685
lowerback -3.52841 1.30039 2.13222
upperback -2.34357 1.73094 -2.46899
thorax -0.291562 0.853743 -3.6793
lowerneck -6.31774 -5.95019 -0.064524
upperneck 7.69755 -7.76719 -2.06529
head 3.5197 -3.927 -1.04923
rclavicle -2.02512e-015 2.5842e-015
rhumerus 22.439 10.303 6.52264
rradius 70.7241
rwrist 25.6431
rhand 170.056 196.292
rfingers 7.12502
rthumb 16.0372 -13.0641
lclavicle -2.02512e-015 2.5842e-015
lhumerus -44.7583 -57.1069 119.863
lradius 88.8211
lwrist 36.6351
lhand -11.6307 53.2844
lfingers 7.12502
lthumb 14.4128 442.764
rfemur -36.9675 -7.80853 16.0702
rtibia 69.2806
rfoot -9.01865 -11.7839
rtoes 14.1624
lfemur -17.8159 -5.65658 -27.9437
ltibia 29.2916
lfoot -22.0282 11.7468
ltoes 3.12369
1093
root -5.84692 17.2024 5.87409 -722.778 100.636 -732.104
lowerback -3.71516 0.913262 1.89837
upperback -2.42148 1.21782 -2.1963
thorax -0.318033 0.598981 -3.28128
lowerneck -6.36246 -5.56648 0.239733
upperneck 7.76693 -7.23174 -2.61493
head 3.52585 -3.67555 -1.25763
rclavicle 1.01007e-014 4.37326e-015
rhumerus 20.8008 10.4446 5.88845
rradius 74.4521
rwrist 24.0862
rhand 171.119 195.215
rfingers 7.12502
rthumb 17.0614 -14.056
lclavicle 1.01007e-014 4.37326e-015
lhumerus -44.9738 -56.3853 121.036
lradius 87.6111
lwrist 36.1409
lhand -12.2038 53.4031
lfingers 7.12502
lthumb 13.8606 442.921
rfemur -37.7145 -6.37404 15.6033
rtibia 65.2725
rfoot -9.89535 -12.2975
rtoes 12.4645
lfemur -16.7496 -5.65904 -27.7578
ltibia 27.5219
lfoot -21.7605 11.5265
ltoes 4.28148
1094
root -5.7414 17.2509 5.87254 -721.611 100.7 -731.203
lowerback -3.89282 0.488004 1.73986
upperback -2.53793 0.653959 -1.95232
thorax -0.382554 0.318124 -2.95928
lowerneck -6.35547 -5.13708 0.449798
upperneck 7.73524 -6.64528 -2.96987
head 3.50395 -3.39341 -1.38079
rclavicle 3.18801e-014 4.17448e-015
rhumerus 19.1996 10.6219 5.25156
rradius 78.321
rwrist 22.078
rhand 172.156 194.24
rfingers 7.12502
rthumb 18.0586 -14.9421
lclavicle 3.18801e-014 4.17448e-015
lhumerus -45.0577 -55.6793 121.926
lradius 86.2989
lwrist 35.1585
lhand -12.3855 53.0456
lfingers 7.12502
lthumb 13.6855 442.576
rfemur -38.1788 -5.09909 15.2456
rtibia 60.7424
rfoot -10.654 -13.395
rtoes 10.645
lfemur -15.6986 -5.12734 -27.431
ltibia 25.6522
lfoot -21.5139 10.8009
ltoes 5.84856
1095
root -5.63593 17.2937 5.87292 -720.147 100.839 -730.03
lowerback -4.03116 0.0502 1.63104
upperback -2.67584 0.073028 -1.66519
thorax -0.484367 0.0284968 -2.62266
lowerneck -6.41425 -4.71775 0.64594
upperneck 7.76142 -6.06262 -3.39752
head 3.51747 -3.11665 -1.53104
rclavicle 9.38015e-016 2.38542e-015
rhumerus 17.6157 10.9258 4.74247
rradius 82.1805
rwrist 19.9238
rhand 172.58 193.671
rfingers 7.12502
rthumb 18.4672 -15.472
lclavicle 9.38015e-016 2.38542e-015
lhumerus -45.0276 -55.0009 122.685
lradius 85.0456
lwrist 34.5225
lhand -12.8996 52.5304
lfingers 7.12502
lthumb 13.19 442.093
rfemur -38.4147 -4.08533 14.9579
rtibia 55.8386
rfoot -11.0547 -14.5668
rtoes 8.655
lfemur -14.7327 -4.63346 -26.9974
ltibia 23.8399
lfoot -21.2763 9.78238
ltoes 7.10514
1096
root -5.52631 17.3284 5.87207 -718.832 100.98 -728.963
lowerback -4.16391 -0.35416 1.49622
upperback -2.77298 -0.46246 -1.34739
thorax -0.536649 -0.236572 -2.2389
lowerneck -6.68199 -4.33769 0.778958
upperneck 7.93414 -5.51932 -3.84627
head 3.62801 -2.86393 -1.69215
rclavicle 8.7838e-015 9.34288e-015
rhumerus 16.0175 11.333 4.19392
rradius 85.9797
rwrist 18.1563
rhand 172.388 192.903
rfingers 7.12502
rthumb 18.282 -16.2579
lclavicle 8.7838e-015 9.34288e-015
lhumerus -44.7549 -54.3627 123.301
lradius 83.9128
lwrist 34.2621
lhand -13.4847 52.5349
lfingers 7.12502
lthumb 12.626 442.133
rfemur -38.3266 -3.35928 14.6958
rtibia 50.6945
rfoot -10.9531 -15.372
rtoes 7.45607
lfemur -13.7619 -4.33419 -26.5824
ltibia 22.1447
lfoot -21.1756 8.66152
ltoes 8.90598
1097
root -5.4078 17.3551 5.87464 -717.677 101.108 -727.992
lowerback -4.33059 -0.717571 1.36988
upperback -2.8295 -0.943375 -1.09409
thorax -0.51904 -0.473508 -1.92624
lowerneck -7.02259 -3.94628 0.76838
upperneck 8.18999 -4.97125 -3.98159
head 3.7978 -2.60171 -1.72831
rclavicle 1.90119e-014 9.24349e-015
rhumerus 14.3452 11.7712 3.29202
rradius 89.7611
rwrist 16.9476
rhand 172.249 192.041
rfingers 7.12502
rthumb 18.1479 -17.1324
lclavicle 1.90119e-014 9.24349e-015
lhumerus -44.4161 -53.9384 123.804
lradius 82.9205
lwrist 34.3111
lhand -14.0713 52.9236
lfingers 7.12502
lthumb 12.0604 442.556
rfemur -37.9233 -2.94406 14.6046
rtibia 45.6729
rfoot -10.7997 -15.852
rtoes 6.37878
lfemur -12.7354 -4.06165 -26.2194
ltibia 20.5784
lfoot -21.0717 8.01022
ltoes 10.3855
1098
root -5.28094 17.3739 5.88285 -716.474 101.245 -726.918
lowerback -4.5093 -1.05297 1.25126
upperback -2.89649 -1.38605 -0.87318
thorax -0.498966 -0.691181 -1.65178
lowerneck -6.95209 -3.56444 0.844914
upperneck 8.09604 -4.45853 -4.09696
head 3.76165 -2.34964 -1.74985
rclavicle 4.63261e-015 -1.44119e-015
rhumerus 12.5989 12.2365 1.958
rradius 93.4563
rwrist 16.4881
rhand 172.425 191.675
rfingers 7.12502
rthumb 18.3178 -17.4824
lclavicle 4.63261e-015 -1.44119e-015
lhumerus -44.1454 -53.7262 124.312
lradius 82.0409
lwrist 34.5143
lhand -14.5069 53.1417
lfingers 7.12502
lthumb 11.6403 442.798
rfemur -37.2916 -2.77859 14.7654
rtibia 40.979
rfoot -10.8924 -16.179
rtoes 5.58441
lfemur -11.6738 -3.92093 -25.8355
ltibia 19.156
lfoot -20.9657 7.8427
ltoes 10.7496
1099
root -5.14644 17.3857 5.89357 -715.423 101.361 -725.919
lowerback -4.63767 -1.35704 1.09322
upperback -2.98906 -1.78405 -0.640346
thorax -0.525092 -0.885896 -1.34143
lowerneck -6.64408 -3.21969 1.0486
upperneck 7.79069 -3.99722 -4.41448
head 3.59859 -2.12425 -1.85194
rclavicle 3.76573e-014 -4.96962e-015
rhumerus 10.8616 12.8115 0.354901
rradius 97.0583
rwrist 16.6113
rhand 172.631 191.448
rfingers 7.12502
rthumb 18.5154 -17.6908
lclavicle 3.76573e-014 -4.96962e-015
lhumerus -43.8913 -53.6001 124.873
lradius 81.2434
lwrist 34.6034
lhand -14.9626 53.2807
lfingers 7.12502
lthumb 11.2008 442.962
rfemur -36.4749 -2.87383 15.1254
rtibia 36.7502
rfoot -11.0438 -16.1951
rtoes 4.69115
lfemur -10.5045 -3.99256 -25.4477
ltibia 17.7554
lfoot -20.9083 7.71827
ltoes 11.437
